<?xml version="1.0" encoding="UTF-8"?>
<svg version="1.1" xmlns="http://www.w3.org/2000/svg" width="600" height="600">
<path d="M0 0 C97.92849919 0 97.92849919 0 123.1875 23.6875 C131.77553879 32.60270217 137.34334501 43.24052998 141 55 C141.3196875 56.02222656 141.639375 57.04445312 141.96875 58.09765625 C147.71076235 80.82645513 145.63777293 107.6809149 136 129 C135.37158203 130.39992188 135.37158203 130.39992188 134.73046875 131.828125 C126.4456518 148.54101222 111.08873838 160.26124022 94 167 C62.95227661 177.3410583 34.85370158 173 0 173 C0 115.91 0 58.82 0 0 Z M37 31 C37 67.63 37 104.26 37 142 C57.0053068 142.84870955 57.0053068 142.84870955 76 139 C76.87011719 138.68289063 77.74023438 138.36578125 78.63671875 138.0390625 C88.04398602 133.97650604 95.88988707 126.25881914 99.97265625 116.84375 C107.34840352 96.42723284 108.29864415 72.66060785 98.9375 52.6875 C93.03552336 41.67376953 84.80648983 35.74067005 73 32 C61.22849304 29.64569861 49.00462874 31 37 31 Z " fill="#2650B7" transform="translate(104,183)"/>
<path d="M0 0 C-0.63841154 3.81182001 -1.75049615 7.10990949 -3.25 10.66796875 C-3.6934375 11.72564453 -4.136875 12.78332031 -4.59375 13.87304688 C-5.0578125 14.96681641 -5.521875 16.06058594 -6 17.1875 C-6.4640625 18.29287109 -6.928125 19.39824219 -7.40625 20.53710938 C-10.79416023 28.58832046 -10.79416023 28.58832046 -12 31 C-13.216875 30.5875 -14.43375 30.175 -15.6875 29.75 C-19.67700825 28.42437226 -23.67683849 27.13523079 -27.6875 25.875 C-28.74324219 25.54242188 -29.79898438 25.20984375 -30.88671875 24.8671875 C-44.30223401 21.13036895 -62.44229343 20.54886111 -75 27 C-75.94875 27.48597656 -76.8975 27.97195312 -77.875 28.47265625 C-89.88775654 35.37672693 -97.00086845 46.55657037 -100.75 59.6875 C-105.65458634 78.47890928 -104.2411527 100.74817418 -95 118 C-89.32639437 127.17705711 -82.09252792 132.4513746 -71.78491211 135.40673828 C-67.00256087 136.42550864 -62.30665607 136.35325579 -57.4375 136.25 C-56.46103516 136.24484375 -55.48457031 136.2396875 -54.47851562 136.234375 C-48.52892089 136.17070041 -42.97503117 135.66389235 -37 135 C-37 123.45 -37 111.9 -37 100 C-47.56 100 -58.12 100 -69 100 C-69 89.44 -69 78.88 -69 68 C-46.23 68 -23.46 68 0 68 C0 98.03 0 128.06 0 159 C-32.04625498 171.01734562 -72.25393855 174.79064802 -104.0625 160.4375 C-111.1078507 156.76085341 -116.45410469 151.59556004 -122 146 C-122.59554688 145.43796875 -123.19109375 144.8759375 -123.8046875 144.296875 C-140.27630235 127.38008137 -143.42075734 98.56121182 -143.21484375 76.25390625 C-142.29586998 52.33204868 -135.67160117 30.73749043 -119 13 C-87.55199348 -15.98642134 -37.78741299 -15.8298622 0 0 Z " fill="#7A5ECF" transform="translate(418,190)"/>
<path d="M0 0 C12.21 0 24.42 0 37 0 C37 57.09 37 114.18 37 173 C24.79 173 12.58 173 0 173 C0 115.91 0 58.82 0 0 Z " fill="#B768E0" transform="translate(459,183)"/>
</svg>
